<?xml version="1.0" encoding="UTF-8"?>
<svg id="Layer_1" xmlns="http://www.w3.org/2000/svg" version="1.1" viewBox="0 0 208.8 195.9">
  <!-- Generator: Adobe Illustrator 30.0.0, SVG Export Plug-In . SVG Version: 2.1.1 Build 123)  -->
  <defs>
    <style>
      .st0 {
        fill: #007bff;
      }
    </style>
  </defs>
  <path class="st0" d="M157.68,184.74H44.5c-4.55,0-9.03-1.3-12.93-3.76-3.73-2.37-6.77-5.67-8.81-9.58l-16.16-27.97v-7.61h6s116.83,0,116.83,0l28.25,48.93ZM22.99,147.81l10.37,17.96c1.07,2.07,2.66,3.83,4.62,5.07,1.97,1.24,4.23,1.9,6.52,1.9h92.4l-14.39-24.93H22.99Z"/>
  <path class="st0" d="M177.62,190.55L74.15,11.35h42.29c9.01,0,17.26,4.97,21.54,12.97l60.2,104.5c2.5,3.93,3.82,8.48,3.82,13.17,0,5.69-1.42,8.79-4.43,14.07l-19.95,34.5ZM94.93,23.35l82.7,143.21,9.54-16.49c2.59-4.53,2.84-5.52,2.84-8.09,0-2.43-.69-4.78-1.99-6.79l-.16-.26L127.43,30.04c-2.22-4.19-6.33-6.69-10.99-6.69h-21.5Z"/>
  <path class="st0" d="M121.27,121.47H17.45L69.46,31.53l51.81,89.94ZM38.25,109.47h62.26l-31.07-53.94-31.19,53.94Z"/>
</svg>